<?xml version="1.0" encoding="UTF-8" standalone="no"?>
<!DOCTYPE svg PUBLIC "-//W3C//DTD SVG 1.1//EN" "http://www.w3.org/Graphics/SVG/1.1/DTD/svg11.dtd">
<svg width="100%" height="100%" viewBox="0 0 6788 4800" version="1.1" xmlns="http://www.w3.org/2000/svg" xmlns:xlink="http://www.w3.org/1999/xlink" xml:space="preserve" xmlns:serif="http://www.serif.com/" style="fill-rule:evenodd;clip-rule:evenodd;stroke-linejoin:round;stroke-miterlimit:2;">
    <g transform="matrix(1,0,0,1,-7690,0)">
        <g id="handwritten-signature-logo-V2" serif:id="handwritten signature logo V2" transform="matrix(4.16667,0,0,4.16667,7690.08,0)">
            <rect x="0" y="0" width="1629.09" height="1152" style="fill:none;"/>
            <g id="Layer-1" serif:id="Layer 1">
            </g>
            <g transform="matrix(1.69255,0,0,1.69255,806.687,630.721)">
                <path d="M0,-259.967C0,-259.967 0.038,-164.865 3.831,-161.394C7.624,-157.923 97.041,-132.537 97.041,-132.537C97.041,-132.537 6.122,-100.731 3.831,-96.785C1.54,-92.839 4.852,0 4.852,0C4.852,0 -49.445,-75.603 -57.203,-77.888C-64.96,-80.173 -142.497,-48.52 -142.497,-48.52C-142.497,-48.52 -93.022,-124.126 -93.21,-128.451C-93.397,-132.777 -151.179,-207.361 -151.179,-207.361C-151.179,-207.361 -60.591,-178.284 -56.692,-179.27C-52.793,-180.256 0,-259.967 0,-259.967" style="fill:rgb(59,85,165);fill-rule:nonzero;stroke:rgb(191,191,191);stroke-width:2.95px;"/>
            </g>
            <g transform="matrix(1.69255,0,0,1.69255,599.896,864.983)">
                <path d="M0,-218.086C1.667,-216.586 5.448,-178.716 78.399,-149.094C116.178,-133.753 136.058,-127.375 189.996,-105.34C255.752,-78.477 276.988,-46.583 275.289,-34.092C274.716,-29.879 271.459,-22.345 251.54,1.149C251.54,1.149 248.305,-14.599 231.11,-30.773C217.303,-43.76 193.389,-58.349 172.375,-66.779C153.214,-74.467 124.61,-86.866 90.657,-99.211C62.307,-109.519 28.411,-125.066 19.153,-131.133C-13.979,-152.842 -23.153,-168.757 -23.494,-180.504C-23.494,-194.549 -1.277,-219.235 0,-218.086" style="fill:rgb(238,34,39);fill-rule:nonzero;stroke:rgb(191,191,191);stroke-width:2.95px;"/>
            </g>
            <g transform="matrix(1.69255,0,0,1.69255,529.587,945.089)">
                <path d="M0,-218.086C1.667,-216.586 5.448,-178.716 78.398,-149.093C116.178,-133.753 136.058,-127.376 189.995,-105.34C255.752,-78.477 276.988,-46.584 275.289,-34.092C274.716,-29.879 271.459,-22.345 251.54,1.149C251.54,1.149 248.305,-14.599 231.11,-30.772C217.303,-43.759 193.389,-58.349 172.375,-66.779C153.213,-74.466 124.61,-86.867 90.656,-99.211C62.306,-109.519 28.411,-125.067 19.153,-131.132C-13.979,-152.841 -23.153,-168.757 -23.494,-180.504C-23.494,-194.549 -1.277,-219.235 0,-218.086" style="fill:rgb(238,34,39);fill-rule:nonzero;stroke:rgb(191,191,191);stroke-width:2.95px;"/>
            </g>
        </g>
    </g>
</svg>
